<svg width="64" height="19" viewBox="0 0 64 19" fill="none" xmlns="http://www.w3.org/2000/svg">
<path d="M10.0817 3.55239C10.715 2.77283 11.1345 1.73601 11.0316 0.691406C10.1054 0.73818 8.9892 1.29167 8.33215 2.05563C7.74634 2.71046 7.22386 3.80184 7.37427 4.80747C8.40339 4.90882 9.44044 4.30856 10.0817 3.55239V3.55239ZM12.3616 10.202C12.3378 7.9335 14.2457 6.86551 14.3327 6.79535C13.264 5.22844 11.5858 5.04914 11.0158 5.01795C9.5196 4.9322 8.2609 5.85208 7.54051 5.85208C6.82012 5.85208 5.73558 5.06473 4.55604 5.07252C3.01235 5.09591 1.53991 5.96122 0.756188 7.32545C-0.85875 10.0539 0.384119 14.1076 1.95156 16.3138C2.71945 17.4129 3.62983 18.6368 4.8252 18.5823C5.96515 18.5355 6.41639 17.8495 7.78592 17.8495C9.15545 17.8495 9.5671 18.5823 10.7704 18.5589C12.0212 18.5355 12.8128 17.4597 13.549 16.3605C14.4198 15.1054 14.7761 13.9127 14.7998 13.8348C14.7761 13.8036 12.3853 12.8915 12.3616 10.202V10.202ZM38.4935 6.18729C35.4853 6.18729 33.6012 7.762 33.4587 9.92917H35.8178C36.0394 8.85338 36.9498 8.19076 38.3906 8.19076C39.9184 8.19076 40.8446 8.9937 40.8446 10.3267V11.2622L37.5039 11.4493C34.6065 11.6052 32.9599 12.9071 32.9599 15.0041C32.9599 17.1713 34.6382 18.629 37.0131 18.629C38.6122 18.629 40.1718 17.7793 40.8763 16.4385H40.9555V18.4264H43.3304V10.1552C43.3383 7.73861 41.4542 6.18729 38.4935 6.18729V6.18729ZM40.8446 13.9361C40.8446 15.503 39.4751 16.6879 37.7256 16.6879C36.3798 16.6879 35.4932 16.0097 35.4932 14.9417C35.4932 13.9127 36.3402 13.2579 37.8523 13.1565L40.8526 12.9772V13.9361H40.8446ZM61.4668 1.89972V8.40903H61.4351C60.7464 7.08378 59.3373 6.21068 57.5877 6.21068C54.5241 6.21068 52.4738 8.62731 52.4738 12.416C52.4738 16.2046 54.5241 18.6368 57.6115 18.6368C59.3927 18.6368 60.786 17.7481 61.5063 16.3761L61.5459 16.4073V18.4342H64V1.89972H61.4668ZM58.2686 16.5398C56.2736 16.5398 55.0545 14.9495 55.0545 12.416C55.0545 9.89019 56.3053 8.2921 58.2686 8.2921C60.2001 8.2921 61.4747 9.92917 61.4747 12.416C61.4826 14.9339 60.2001 16.5398 58.2686 16.5398ZM48.2148 8.45581H48.1673V6.3432H45.7924V18.4264H48.3256V11.231C48.3256 9.5238 49.2597 8.4714 50.8747 8.4714C51.3576 8.4714 51.8484 8.53376 52.0463 8.60392V6.30423C51.8642 6.26525 51.508 6.21068 51.1438 6.21068C49.711 6.21068 48.6185 7.04481 48.2148 8.45581V8.45581ZM24.6636 16.4697C21.5921 16.4697 19.6367 14.0452 19.6367 10.1786C19.6367 6.36659 21.6158 3.90319 24.6478 3.90319C26.9277 3.90319 28.7009 5.32978 29.1759 7.43459H31.7487C31.3133 4.00453 28.4476 1.65806 24.6478 1.65806C19.9692 1.65806 16.9847 4.94779 16.9847 10.1708C16.9847 15.4329 19.9454 18.6914 24.6478 18.6914C28.4951 18.6914 31.1313 16.6724 31.7646 13.2813H29.1759C28.6534 15.2925 27.0068 16.4697 24.6636 16.4697V16.4697Z" fill="white"/>
</svg>
